<?xml version="1.0" encoding="utf-8" ?>
<svg baseProfile="full" height="800" version="1.1" viewBox="0 0 800 800" width="800" xmlns="http://www.w3.org/2000/svg" xmlns:ev="http://www.w3.org/2001/xml-events" xmlns:xlink="http://www.w3.org/1999/xlink"><defs /><path d="M 99 501 L 99 655 L 100 656 L 100 663 L 101 664 L 101 668 L 102 669 L 103 676 L 104 677 L 105 682 L 107 685 L 107 687 L 110 693 L 112 695 L 113 698 L 115 700 L 117 704 L 120 707 L 120 708 L 124 712 L 124 713 L 133 722 L 134 722 L 139 727 L 140 727 L 143 730 L 144 730 L 149 734 L 161 740 L 166 741 L 172 744 L 175 744 L 176 745 L 179 745 L 180 746 L 187 746 L 188 747 L 608 747 L 609 746 L 615 746 L 616 745 L 624 744 L 625 743 L 630 742 L 633 740 L 635 740 L 647 734 L 649 732 L 656 728 L 660 724 L 661 724 L 674 711 L 674 710 L 678 706 L 678 705 L 684 697 L 691 683 L 691 681 L 693 677 L 693 674 L 694 673 L 694 670 L 695 669 L 695 666 L 696 665 L 696 659 L 697 658 L 697 501 Z" fill="black" stroke="none" /><path d="M 103 126 L 103 129 L 102 130 L 102 133 L 101 134 L 101 138 L 100 139 L 100 146 L 99 147 L 99 297 L 263 297 L 264 298 L 264 426 L 265 427 L 266 432 L 269 435 L 273 437 L 318 437 L 320 435 L 321 435 L 325 430 L 325 428 L 326 427 L 326 298 L 327 297 L 476 297 L 477 298 L 477 427 L 478 428 L 479 432 L 485 437 L 530 437 L 534 435 L 537 432 L 537 430 L 539 426 L 539 298 L 540 297 L 697 297 L 697 144 L 696 143 L 696 137 L 695 136 L 695 132 L 693 128 L 693 125 L 692 124 L 692 122 L 690 119 L 690 117 L 685 107 L 683 105 L 682 102 L 680 100 L 678 96 L 662 79 L 661 79 L 657 75 L 656 75 L 653 72 L 652 72 L 647 68 L 635 62 L 633 62 L 630 60 L 628 60 L 624 58 L 621 58 L 620 57 L 617 57 L 616 56 L 611 56 L 610 55 L 596 55 L 595 54 L 201 54 L 200 55 L 186 55 L 185 56 L 180 56 L 179 57 L 172 58 L 171 59 L 166 60 L 163 62 L 161 62 L 149 68 L 147 70 L 143 72 L 140 75 L 139 75 L 136 78 L 135 78 L 123 90 L 123 91 L 119 95 L 119 96 L 113 104 L 112 107 L 110 109 L 107 115 L 107 117 L 105 120 L 104 125 Z" fill="black" stroke="none" /></svg>